<svg xmlns="http://www.w3.org/2000/svg" viewBox="0 0 24 24" fill="none">
  <path d="M7 2C4.23858 2 2 4.23858 2 7V17C2 19.7614 4.23858 22 7 22H17C19.7614 22 22 19.7614 22 17V7C22 4.23858 19.7614 2 17 2H7ZM7 0H17C20.866 0 24 3.13401 24 7V17C24 20.866 20.866 24 17 24H7C3.13401 24 0 20.866 0 17V7C0 3.13401 3.13401 0 7 0ZM12 7C9.23858 7 7 9.23858 7 12C7 14.7614 9.23858 17 12 17C14.7614 17 17 14.7614 17 12C17 9.23858 14.7614 7 12 7ZM12 15C10.3431 15 9 13.6569 9 12C9 10.3431 10.3431 9 12 9C13.6569 9 15 10.3431 15 12C15 13.6569 13.6569 15 12 15ZM18 5C18.5523 5 19 5.44772 19 6C19 6.55228 18.5523 7 18 7C17.4477 7 17 6.55228 17 6C17 5.44772 17.4477 5 18 5Z" fill="#0B3B71"></path>
</svg>
